HIERARCHY
ROOT Root
{
  OFFSET -9.11166 11.8871 1.63708
  CHANNELS 6 Xposition Yposition Zposition Zrotation Xrotation Yrotation
  JOINT Spine
  {
    OFFSET 5.3114 0 0
    CHANNELS 3 Zrotation Xrotation Yrotation
    JOINT Spine1
    {
      OFFSET 2.79004 0 0
      CHANNELS 3 Zrotation Xrotation Yrotation
      JOINT Neck
      {
        OFFSET 1.43377 0 0
        CHANNELS 3 Zrotation Xrotation Yrotation
        JOINT Head
        {
          OFFSET 1.86043 0 0
          CHANNELS 3 Zrotation Xrotation Yrotation
          End Site
          {
            OFFSET 0 0 0
          }
        }
      }
      JOINT LeftArm
      {
        OFFSET 0.0387506 0 2.55754
        CHANNELS 3 Zrotation Xrotation Yrotation
        JOINT LeftForeArm
        {
          OFFSET 4.24845 0 0
          CHANNELS 3 Zrotation Xrotation Yrotation
          JOINT LeftHand
          {
            OFFSET 4.01008 0 0
            CHANNELS 3 Zrotation Xrotation Yrotation
            End Site
            {
              OFFSET 0 0 0
            }
          }
        }
      }
      JOINT RightArm
      {
        OFFSET 0.0387506 0 -2.55754
        CHANNELS 3 Zrotation Xrotation Yrotation
        JOINT RightForeArm
        {
          OFFSET -4.24845 0 0
          CHANNELS 3 Zrotation Xrotation Yrotation
          JOINT RightHand
          {
            OFFSET -4.01009 0 0
            CHANNELS 3 Zrotation Xrotation Yrotation
            End Site
            {
              OFFSET 0 0 0
            }
          }
        }
      }
    }
  }
  JOINT LeftUpLeg
  {
    OFFSET -1.23318 0 2.05692
    CHANNELS 3 Zrotation Xrotation Yrotation
    JOINT LeftLeg
    {
      OFFSET 5.46397 0 0
      CHANNELS 3 Zrotation Xrotation Yrotation
      JOINT LeftFoot
      {
        OFFSET 4.68898 0 0
        CHANNELS 3 Zrotation Xrotation Yrotation
        End Site
        {
          OFFSET 0 0 0
        }
      }
    }
  }
  JOINT RightUpLeg
  {
    OFFSET -1.24454 0 -2.05007
    CHANNELS 3 Zrotation Xrotation Yrotation
    JOINT RightLeg
    {
      OFFSET -5.46397 0 0
      CHANNELS 3 Zrotation Xrotation Yrotation
      JOINT RightFoot
      {
        OFFSET -4.68901 0 0
        CHANNELS 3 Zrotation Xrotation Yrotation
        End Site
        {
          OFFSET 0 0 0
        }
      }
    }
  }
}
MOTION
Frames:	10
Frame Time:	0.0416667
-9.11166 11.8871 1.63708 -0 90 90 9.69808e-018 1.34041e-020 0.158382 1.41245e-030 7.06225e-031 2.48481e-017 -7.30747e-017 7.61111e-019 -1.19349 3.40995e-017 1.65719e-019 0.556895 -2.12238e-008 -1.53545e-005 -90.1584 -2.50273e-005 -2.47192e-012 6.55612e-006 1.52588e-005 -6.98387e-015 174.455 180 -4.60993e-005 -89.8417 -5.49628e-005 -2.25992e-011 3.612e-005 1.52588e-005 6.98387e-015 174.455 -3.94879 -0.248857 -175.995 -8.56444 0.175948 -0.869976 4.60963 -0.077536 176.868 177.969 -0.126284 -176.037 -4.40394 0.0842343 -0.877215 2.37029 -0.0334797 176.598 
-8.76305 11.9111 1.36178 -101.512 -1.12247 -178.313 -7.83594 -3.25817 3.94352 5.36774 -0.7361 2.65937 -19.7725 -0.121985 -4.09283 30.7558 -0.499955 0.839436 -4.46822 -35.4668 179.748 29.9729 1.65118 17.3521 -1.17138 -13.1514 174.319 -178.44 -4.70813 -179.032 27.941 1.26992 16.2015 2.02769 22.0148 174.058 -18.1614 -3.92589 -178.582 -44.0964 -1.16756 -1.51703 26.5264 -2.10613 178.216 150.424 -6.84517 177.076 -37.8316 -0.937209 -1.42909 -2.19118 13.8789 177.084 
-8.6545 11.9126 1.5349 -100.602 3.88378 -178.255 -7.20554 -1.90007 3.88946 4.85067 -0.373441 2.21138 -18.2229 -0.751553 -4.4165 28.2247 -1.64959 1.94641 0.0443215 -32.925 -173.265 28.388 1.6228 16.4095 -1.13799 -12.7872 174.326 -178.281 -7.56842 -173.911 26.6646 1.2904 15.4401 1.80086 19.7869 174.141 -20.8652 -2.55813 -177.833 -49.4438 -1.13928 -1.66685 23.3306 -3.13206 178.426 153.506 -5.71222 177.295 -35.6444 -0.867091 -1.39302 -1.53027 13.5374 177.109 
-8.50659 11.9151 1.69082 -100.055 3.55738 -178.044 -6.84445 -0.759992 3.58721 4.87121 -0.0641956 2.10162 -18.2602 -1.13333 -4.63557 28.2749 -2.30718 2.70258 0.994274 -32.4905 -173.189 29.5188 1.85765 17.0415 -1.27059 -14.2107 174.292 -178.842 -12.1597 -173.617 27.0213 1.35647 15.6415 1.78134 19.6075 174.146 -23.9748 -1.91774 -177.656 -55.5473 -1.22221 -1.83933 24.0294 -5.26747 179.221 155.102 -5.36832 176.857 -35.466 -0.865916 -1.38895 -1.10576 14.0369 177.164 
-8.34607 11.8996 1.83434 -99.8192 4.16793 -177.51 -6.6786 0.50715 3.06557 4.89219 0.277473 1.9601 -17.9105 -1.4403 -4.70182 27.8192 -2.87199 3.0059 2.01711 -31.8249 -173.325 30.389 2.04673 17.526 -1.33749 -14.9211 174.274 -179.463 -17.256 -172.506 27.4968 1.44702 15.9091 1.79833 19.7739 174.139 -27.2313 -1.32845 -178.208 -59.7149 -1.30284 -1.96479 25.3846 -6.98367 -179.965 155.928 -5.27153 176.667 -36.0282 -0.868953 -1.40298 -1.51546 14.552 177.454 
-8.16112 11.8779 1.97512 -99.5911 4.82871 -177.254 -6.50636 1.53461 2.85308 4.91147 0.549669 1.64182 -17.9694 -1.55127 -5.02838 28.4665 -2.98253 3.73199 2.84948 -30.8231 -173.472 30.3212 2.03161 17.4883 -1.32677 -14.8253 174.276 179.775 -21.3072 -171.152 27.8831 1.52217 16.1262 1.84943 20.2388 174.12 -30.6557 -1.48725 -178.952 -61.4371 -1.32952 -2.01322 25.4826 -7.36151 -179.719 157.067 -5.08175 176.241 -36.2714 -0.878877 -1.41044 -1.70153 15.276 177.717 
-7.95759 11.8482 2.11415 -99.7685 5.56911 -177.139 -6.75047 2.2286 2.86333 4.81129 0.735157 1.34508 -17.9154 -1.58237 -5.08095 29.0781 -2.985 3.82285 3.67006 -29.8076 -173.75 29.4332 1.83952 16.9937 -1.31623 -14.6942 174.279 179.474 -24.2922 -169.58 28.6476 1.67545 16.5549 1.80483 19.7837 174.136 -34.1907 -1.81593 -179.995 -60.5079 -1.33328 -1.98183 24.8481 -7.22845 -179.698 158.055 -4.70177 175.733 -36.1885 -0.896406 -1.40748 -2.14311 16.1725 178.084 
-7.73226 11.8313 2.26047 -100.007 6.46779 -177.038 -6.94182 2.79284 2.85366 4.71283 0.889806 1.1905 -18.2015 -1.51044 -5.17594 30.0682 -2.79586 3.93113 4.25225 -28.9856 -174.181 28.0215 1.54927 16.2041 -1.24396 -13.9256 174.299 179.31 -25.8856 -168.111 29.7097 1.89835 17.148 1.71275 18.8556 174.168 -37.2158 -1.80421 178.811 -57.2303 -1.32476 -1.88312 24.2765 -6.39595 -179.87 159.401 -4.43695 175.207 -35.5605 -0.908562 -1.39258 -2.75379 16.5698 178.512 
-7.48643 11.8245 2.4113 -100.137 7.53398 -176.832 -6.85223 3.37931 2.64627 4.77036 1.04381 1.00219 -18.208 -1.52951 -4.94746 29.9129 -2.75987 3.99821 4.56567 -28.26 -174.369 26.3022 1.2241 15.2355 -1.16164 -13.0414 174.32 178.747 -26.119 -167.08 30.6221 2.09876 17.6553 1.62779 17.9878 174.197 -39.2099 -0.931802 177.473 -51.7959 -1.30053 -1.73085 23.1319 -6.23239 -179.815 161.307 -3.97941 174.916 -34.3068 -0.908469 -1.36292 -4.26276 16.6679 179.202 
-7.22631 11.8189 2.57508 -100.416 8.66066 -176.962 -6.84323 3.87272 2.73194 4.78494 1.17874 0.833768 -18.5406 -1.42654 -4.96548 30.1121 -2.41738 4.58782 4.85493 -27.0987 -174.601 24.8031 0.964931 14.3859 -1.04028 -11.7248 174.349 178.176 -25.41 -166.491 31.3731 2.27002 18.0711 1.54584 17.1417 174.223 -40.9192 0.184699 176.423 -45.3612 -1.23561 -1.56312 21.438 -6.39057 -179.684 163.781 -3.42486 174.282 -31.7869 -0.894466 -1.30226 -5.8978 16.3974 179.833 
